{"title":"What The Jatt (2015) - Punjabi - 720p - iTunes HDRip - x264 - AC","uid":12048898,"size":1289937269,"categoryP":"video","categoryS":"movies","magnet":"?xt=urn:btih:09b27b4c0094eaac3e1bdd29a7b936ec3f627fa3&amp;dn=What+The+Jatt+%282015%29+-+Punjabi+-+720p+-+iTunes+HDRip+-+x264+-+AC&amp;tr=udp%3A%2F%2Ftracker.openbittorrent.com%3A80&amp;tr=udp%3A%2F%2Fopen.demonii.com%3A1337&amp;tr=udp%3A%2F%2Ftracker.coppersurfer.tk%3A6969&amp;tr=udp%3A%2F%2Fexodus.desync.com%3A6969","seeders":12,"leechers":2,"uploader":"SS132203","files":2,"time":1434960825,"description":"What The Jatt (2015) - Punjabi - 720p - iTunes HDRip - x264 - AC3 5.1 -={SPARROW}=-\n &lt;a href=&quot;\nhttp://imgsparrow.co/image/ff&quot; rel=&quot;nofollow&quot; target=&quot;_NEW&quot;&gt;\nhttp://imgsparrow.co/image/ff&lt;/a&gt;\n &lt;a href=&quot;\nhttp://imgsparrow.co/image/QS&quot; rel=&quot;nofollow&quot; target=&quot;_NEW&quot;&gt;\nhttp://imgsparrow.co/image/QS&lt;/a&gt;\n\nInfo : - \n\nSOURCE: 1080p iTunes HD Team Telly ( Thanks a Ton)\n\nFormat                      : Matroska\nFormat version              : Version 2\nFile size                   : 1.20 GiB\nDuration                    : 2h 20mn\nOverall bit rate            : 1 227 Kbps\nWriting application         : HandBrake 0.10.1 2015030800\nWriting library             : Lavf55.12.0\n\nVideo\nID                          : 1\nFormat                      : AVC\nFormat/Info                 : Advanced Video Codec\nFormat profile              : &lt;a class=&quot;__cf_email__&quot; href=&quot;/cdn-cgi/l/email-protection&quot; data-cfemail=&quot;8ec3efe7e0cec2baa0bf&quot;&gt;[email&amp;#160;protected]&lt;/a&gt;&lt;script data-cfhash='f9e31' type=&quot;text/javascript&quot;&gt;\n/* &lt;![CDATA[ */!function(){try{var t=&quot;currentScript&quot;in document?document.currentScript:function(){for(var t=document.getElementsByTagName(&quot;script&quot;),e=t.length;e--;)if(t[e].getAttribute(&quot;data-cfhash&quot;))return t[e]}();if(t&amp;&amp;t.previousSibling){var e,r,n,i,c=t.previousSibling,a=c.getAttribute(&quot;data-cfemail&quot;);if(a){for(e=&quot;&quot;,r=parseInt(a.substr(0,2),16),n=2;a.length-n;n+=2)i=parseInt(a.substr(n,2),16)^r,e+=String.fromCharCode(i);e=document.createTextNode(e),c.parentNode.replaceChild(e,c)}t.parentNode.removeChild(t);}}catch(u){}}()/* ]]&gt; */&lt;/script&gt;\nFormat settings, CABAC      : Yes\nFormat settings, ReFrames   : 4 frames\nCodec ID                    : V_MPEG4/ISO/AVC\nDuration                    : 2h 20mn\nBit rate                    : 1 000 Kbps\nWidth                       : 1 280 pixels\nHeight                      : 546 pixels\nDisplay aspect ratio        : 2.35:1\nOriginal display aspect rat : 2.35:1\nFrame rate mode             : Constant\nFrame rate                  : 24.000 fps\nColor space                 : YUV\nChroma subsampling          : 4:2:0\nBit depth                   : 8 bits\nScan type                   : Progressive\nBits/(Pixel*Frame)          : 0.060\nStream size                 : 981 MiB (80%)\nWriting library             : x264 core 142 r2479 dd79a61\nDefault                     : Yes\nForced                      : No\nColor range                 : Limited\nColor primaries             : BT.709\nTransfer characteristics    : BT.709\nMatrix coefficients         : BT.709\n\nAudio\nID                          : 2\nFormat                      : AC-3\nFormat/Info                 : Audio Coding 3\nMode extension              : CM (complete main)\nFormat settings, Endianness : Big\nCodec ID                    : A_AC3\nDuration                    : 2h 20mn\nBit rate mode               : Constant\nBit rate                    : 224 Kbps\nChannel(s)                  : 6 channels\nChannel positions           : Front: L C R, Side: L R, LFE\nSampling rate               : 48.0 KHz\nCompression mode            : Lossy\nDelay relative to video     : 27ms\nStream size                 : 225 MiB (18%)\nTitle                       : Surround\nLanguage                    : Panjabi\nDefault                     : Yes\nForced                      : No\n\nMenu\n00:00:00.000                : :1\n00:08:04.083                : :2\n00:15:47.083                : :3\n00:23:35.083                : :4\n00:30:00.083                : :5\n00:38:10.166                : :6\n00:44:07.083                : :7\n00:52:20.166                : :8\n00:58:35.166                : :9\n01:05:41.166                : :10\n01:13:26.166                : :11\n01:19:57.083                : :12\n01:28:39.083                : :13\n01:34:35.166                : :14\n01:41:44.166                : :15\n01:48:12.166                : :16\n01:56:31.166                : :17\n02:04:15.083                : :18\n02:10:43.166                : :19\n02:18:13.166                : :20\n\nScreens : - \n &lt;a href=&quot;\nhttp://imgsparrow.co/image/fI&quot; rel=&quot;nofollow&quot; target=&quot;_NEW&quot;&gt;\nhttp://imgsparrow.co/image/fI&lt;/a&gt; &lt;a href=&quot;\nhttp://imgsparrow.co/image/fP&quot; rel=&quot;nofollow&quot; target=&quot;_NEW&quot;&gt;\nhttp://imgsparrow.co/image/fP&lt;/a&gt; &lt;a href=&quot;\nhttp://imgsparrow.co/image/fW&quot; rel=&quot;nofollow&quot; target=&quot;_NEW&quot;&gt;\nhttp://imgsparrow.co/image/fW&lt;/a&gt; &lt;a href=&quot;\nhttp://imgsparrow.co/image/fX&quot; rel=&quot;nofollow&quot; target=&quot;_NEW&quot;&gt;\nhttp://imgsparrow.co/image/fX&lt;/a&gt; &lt;a href=&quot;\nhttp://imgsparrow.co/image/fY&quot; rel=&quot;nofollow&quot; target=&quot;_NEW&quot;&gt;\nhttp://imgsparrow.co/image/fY&lt;/a&gt; &lt;a href=&quot;\nhttp://imgsparrow.co/image/fc&quot; rel=&quot;nofollow&quot; target=&quot;_NEW&quot;&gt;\nhttp://imgsparrow.co/image/fc&lt;/a&gt; &lt;a href=&quot;\nhttp://imgsparrow.co/image/fd&quot; rel=&quot;nofollow&quot; target=&quot;_NEW&quot;&gt;\nhttp://imgsparrow.co/image/fd&lt;/a&gt; &lt;a href=&quot;\nhttp://imgsparrow.co/image/fo&quot; rel=&quot;nofollow&quot; target=&quot;_NEW&quot;&gt;\nhttp://imgsparrow.co/image/fo&lt;/a&gt; &lt;a href=&quot;\nhttp://imgsparrow.co/image/fM&quot; rel=&quot;nofollow&quot; target=&quot;_NEW&quot;&gt;\nhttp://imgsparrow.co/image/fM&lt;/a&gt; &lt;a href=&quot;\nhttp://imgsparrow.co/image/fm&quot; rel=&quot;nofollow&quot; target=&quot;_NEW&quot;&gt;\nhttp://imgsparrow.co/image/fm&lt;/a&gt;\n &lt;a href=&quot;\nhttp://imgsparrow.co/image/N2&quot; rel=&quot;nofollow&quot; target=&quot;_NEW&quot;&gt;\nhttp://imgsparrow.co/image/N2&lt;/a&gt;","torrent":{"xt":"urn:btih:09b27b4c0094eaac3e1bdd29a7b936ec3f627fa3","amp;dn":"What+The+Jatt+%282015%29+-+Punjabi+-+720p+-+iTunes+HDRip+-+x264+-+AC","amp;tr":["udp%3A%2F%2Ftracker.openbittorrent.com%3A80","udp%3A%2F%2Fopen.demonii.com%3A1337","udp%3A%2F%2Ftracker.coppersurfer.tk%3A6969","udp%3A%2F%2Fexodus.desync.com%3A6969"],"infoHash":"09b27b4c0094eaac3e1bdd29a7b936ec3f627fa3","infoHashBuffer":{"type":"Buffer","data":[9,178,123,76,0,148,234,172,62,27,221,41,167,185,54,236,63,98,127,163]},"announce":[],"urlList":[]}}